<svg width="12" height="12" viewBox="0 0 12 12" fill="none" xmlns="http://www.w3.org/2000/svg">
<path d="M11.8083 10.8401L8.64126 7.67542C8.88488 7.36038 9.07118 7.01671 9.22881 6.65871C9.47243 6.0716 9.6014 5.44153 9.6014 4.79714C9.6014 4.15274 9.47243 3.52267 9.22881 2.93556C8.9852 2.36277 8.64126 1.84726 8.19702 1.40334C7.75278 0.959427 7.23688 0.615752 6.66366 0.372315C6.07611 0.128878 5.44557 0 4.8007 0C4.15583 0 3.52529 0.128878 2.93774 0.372315C2.36452 0.615752 1.84863 0.959427 1.40438 1.40334C0.96014 1.84726 0.616209 2.36277 0.372592 2.93556C0.128974 3.52267 0 4.15274 0 4.79714C0 5.44153 0.128974 6.0716 0.372592 6.65871C0.616209 7.2315 0.96014 7.74702 1.40438 8.19093C1.84863 8.63484 2.36452 8.97852 2.93774 9.22196C3.52529 9.46539 4.15583 9.59427 4.8007 9.59427C5.44557 9.59427 6.07611 9.46539 6.66366 9.22196C7.03625 9.06444 7.36585 8.86396 7.68112 8.63484L10.8482 11.7995C10.9771 11.9284 11.1491 12 11.3211 12C11.493 12 11.665 11.9284 11.794 11.7995C12.0662 11.5274 12.0662 11.0979 11.8083 10.8401ZM4.81503 8.52029C2.75145 8.52029 1.07478 6.84487 1.07478 4.78282C1.07478 2.72076 2.75145 1.04535 4.81503 1.04535C6.87862 1.04535 8.55528 2.72076 8.55528 4.78282C8.55528 5.68496 8.24001 6.50119 7.70978 7.14558C7.55215 7.33174 7.38018 7.5179 7.17956 7.67542C6.53469 8.20525 5.70352 8.52029 4.81503 8.52029Z" fill="#E1E0E0"/>
</svg>
